# xmcd CD database file
#
# Track frame offsets:
#	150
#	12459
#	27749
#	42472
#	56584
#	70583
#	86029
#	101544
#	117161
#	132310
#	144661
#	157008
#	172804
#	188384
#	203993
#	219653
#	233186
#	246844
#	261269
#	275866
#	289332
#	303360
#	317989
#	332520
#	345352
#
# Disc length: 4775 seconds
#
# Revision: 0
# Processed by: cddbd v1.5.2PL0 Copyright (c) Steve Scherf et al.
# Submitted via: CDex 1.51
#
DISCID=7d12a519
DTITLE=Red Nichols - The Complete Brunswick Recordings - Volume 5
DYEAR=1900
DGENRE=Jazz
TTITLE0=Nobody Knows
TTITLE1=Smiles 1
TTITLE2=Smiles 2
TTITLE3=Get Happy 1
TTITLE4=Get Happy 2
TTITLE5=Somebody To Love Me 1
TTITLE6=Somebody To Love Me 2
TTITLE7=Say It With Music 1
TTITLE8=Say It With Music 2
TTITLE9=Strike Up The Band 1
TTITLE10=Strike Up The Band 2
TTITLE11=Soon 1
TTITLE12=Soon 2
TTITLE13=Sometimes I'm Happy 1
TTITLE14=Sometimes I'm Happy 2
TTITLE15=Hallelujah! 1
TTITLE16=Hallelujah! 2
TTITLE17=I'm Just Wild About Harry
TTITLE18=After You've Gone
TTITLE19=I Want To Be Happy
TTITLE20=Tea For Two
TTITLE21=Peg O' My Heart 1
TTITLE22=Peg O' My Heart 2
TTITLE23=Sweet Georgia Brown
TTITLE24=China Boy
EXTD=
EXTT0=
EXTT1=
EXTT2=
EXTT3=
EXTT4=
EXTT5=
EXTT6=
EXTT7=
EXTT8=
EXTT9=
EXTT10=
EXTT11=
EXTT12=
EXTT13=
EXTT14=
EXTT15=
EXTT16=
EXTT17=
EXTT18=
EXTT19=
EXTT20=
EXTT21=
EXTT22=
EXTT23=
EXTT24=
PLAYORDER=
